<?xml version="1.0" encoding="UTF-8"?>
<svg width="817px" height="295px" viewBox="0 0 817 295" version="1.1" xmlns="http://www.w3.org/2000/svg" xmlns:xlink="http://www.w3.org/1999/xlink">
    <!-- Generator: Sketch 55.2 (78181) - https://sketchapp.com -->
    <title>ein</title>
    <desc>Created with Sketch.</desc>
    <g id="ein" stroke="none" stroke-width="1" fill="none" fill-rule="evenodd">
        <rect fill="#19232F" x="0" y="0" width="817" height="295"></rect>
        <g id="Group-23" transform="translate(725.000000, 229.500000) rotate(-30.000000) translate(-725.000000, -229.500000) translate(433.000000, 24.000000)">
            <g id="Group-22" transform="translate(0.154156, 5.410599)" stroke="#0081FF" stroke-linecap="square">
                <path d="M153.847222,225.598859 L249.857143,208.659696" id="Line-14"></path>
                <path d="M249.857143,208.659696 L312.707011,235.993346" id="Line-15"></path>
                <path d="M249.857143,208.659696 L340.854497,253.31749" id="Line-16"></path>
                <path d="M341.625661,253.31749 L312.707011,235.993346" id="Line-17"></path>
                <path d="M312.707011,235.993346 L346.252646,248.312738" id="Line-18"></path>
                <path d="M346.252646,248.312738 L438.021164,329.543726" id="Line-19"></path>
                <path d="M109.505291,272.951521 L250.435516,208.659696" id="Line-34"></path>
                <path d="M261.424603,268.71673 L306.152116,289.505703" id="Line-44"></path>
                <path d="M336.998677,334.93346 L306.441303,290.275665" id="Line-45"></path>
                <path d="M336.998677,334.93346 L261.424603,268.71673" id="Line-46"></path>
                <path d="M261.424603,268.71673 L322.732143,125.888783" id="Line-48"></path>
                <path d="M306.152116,289.505703 L322.732143,125.888783" id="Line-49"></path>
                <path d="M322.732143,125.888783 L391.365741,222.326521" id="Line-50"></path>
                <path d="M392.136905,222.13403 L337.769841,334.93346" id="Line-51"></path>
                <path d="M337.769841,334.93346 L405.246693,286.040875" id="Line-52"></path>
                <path d="M391.365741,222.326521 L312.707011,235.993346" id="Line-56"></path>
                <path d="M345.095899,248.312738 L361.290344,200.190114" id="Line-57"></path>
                <path d="M361.290344,199.035171 L391.365741,104.329848" id="Line-58"></path>
                <path d="M391.365741,103.559886 L428.381614,110.489544" id="Line-59"></path>
                <path d="M428.381614,110.489544 L391.365741,222.13403" id="Line-60"></path>
                <path d="M428.381614,110.489544 L422.983466,214.434411" id="Line-61"></path>
                <path d="M464.240741,204.809886 L345.095899,248.312738" id="Line-63"></path>
                <path d="M312.707011,235.993346 L361.290344,199.035171" id="Line-64"></path>
                <path d="M361.290344,199.035171 L422.983466,214.434411" id="Line-65"></path>
                <path d="M322.732143,125.888783 L352.036376,0.384980989" id="Line-66"></path>
                <path d="M353.193122,0.384980989 L473.109127,0.384980989" id="Line-67"></path>
                <path d="M391.365741,104.329848 L354.157077,2.88735741" id="Line-72"></path>
                <path d="M392.136905,104.329848 L451.516534,51.2024715" id="Line-73"></path>
                <path d="M451.516534,51.2024715 L495.472884,11.5494297" id="Line-74"></path>
                <path d="M391.365741,103.559886 L453.830026,79.6910646" id="Line-75"></path>
                <path d="M453.830026,79.6910646 L551.767857,103.559886" id="Line-76"></path>
                <path d="M464.626323,147.447719 L453.830026,79.6910646" id="Line-85"></path>
                <path d="M453.830026,79.6910646 L451.516534,51.2024715" id="Line-86"></path>
                <path d="M428.381614,110.104563 L524.005952,81.2309886" id="Line-87"></path>
                <path d="M524.005952,81.2309886 L465.590278,147.447719" id="Line-88"></path>
                <path d="M524.005952,81.2309886 L464.240741,202.5" id="Line-89"></path>
                <path d="M453.830026,79.6910646 L524.005952,81.2309886" id="Line-90"></path>
                <path d="M524.005952,80.4610266 L451.516534,51.2024715" id="Line-91"></path>
                <path d="M451.516534,51.2024715 L515.90873,38.8830798" id="Line-92"></path>
                <path d="M453.830026,79.6910646 L494.316138,11.5494297" id="Line-96"></path>
                <path d="M494.316138,11.5494297 L524.005952,81.2309886" id="Line-97"></path>
            </g>
            <g id="Group-20" transform="translate(38.868257, 0.549383)" fill="#FFFFFF">
                <ellipse id="Oval-Copy-14" cx="302.889053" cy="258.282443" rx="4.62426036" ry="4.6259542"></ellipse>
                <ellipse id="Oval-Copy-15" cx="306.357249" cy="253.270992" rx="4.23890533" ry="4.24045802"></ellipse>
                <ellipse id="Oval-Copy-16" cx="273.987426" cy="240.935115" rx="3.46819527" ry="3.46946565"></ellipse>
                <ellipse id="Oval-Copy-17" cx="211.174556" cy="213.564885" rx="4.62426036" ry="4.6259542"></ellipse>
                <ellipse id="Oval-Copy-20" cx="322.54216" cy="203.927481" rx="3.46819527" ry="3.46946565"></ellipse>
                <ellipse id="Oval-Copy-25" cx="389.593935" cy="115.263359" rx="4.23890533" ry="4.24045802"></ellipse>
                <ellipse id="Oval-Copy-26" cx="352.599852" cy="109.09542" rx="5.78032544" ry="5.78244275"></ellipse>
                <ellipse id="Oval-Copy-27" cx="284.006657" cy="130.683206" rx="3.46819527" ry="3.46946565"></ellipse>
                <ellipse id="Oval-Copy-28" cx="412.715237" cy="55.8969466" rx="3.46819527" ry="3.46946565"></ellipse>
                <ellipse id="Oval-Copy-29" cx="415.027367" cy="84.4236641" rx="4.62426036" ry="4.24045802"></ellipse>
                <ellipse id="Oval-Copy-36" cx="314.064349" cy="5.01145038" rx="5.00961538" ry="5.01145038"></ellipse>
            </g>
        </g>
        <g id="Group-23" transform="translate(69.425626, 136.162831) rotate(150.000000) translate(-69.425626, -136.162831) translate(-244.574374, -84.837169)">
            <g id="Group-22" transform="translate(0.220200, 5.335880)" stroke="#0081FF" stroke-linecap="square">
                <path d="M115.696429,293.844106 L163.384921,243.281369" id="Line-13"></path>
                <path d="M165.458333,242.86692 L268.714286,224.631179" id="Line-14"></path>
                <path d="M268.714286,224.631179 L336.30754,254.057034" id="Line-15"></path>
                <path d="M268.714286,224.631179 L366.579365,272.707224" id="Line-16"></path>
                <path d="M367.40873,272.707224 L336.30754,254.057034" id="Line-17"></path>
                <path d="M336.30754,254.057034 L372.384921,267.319392" id="Line-18"></path>
                <path d="M112.793651,350.623574 L164.214286,243.281369" id="Line-33"></path>
                <path d="M117.769841,293.844106 L269.33631,224.631179" id="Line-34"></path>
                <path d="M157.994048,336.117871 L164.214286,245.768061" id="Line-35"></path>
                <path d="M177.069444,352.281369 L281.154762,289.285171" id="Line-38"></path>
                <path d="M246.321429,410.925856 L362.639881,360.570342" id="Line-40"></path>
                <path d="M362.639881,360.570342 L296.498016,435.585551" id="Line-42"></path>
                <path d="M329.257937,312.494297 L296.498016,435.585551" id="Line-43"></path>
                <path d="M281.154762,289.285171 L329.257937,311.665399" id="Line-44"></path>
                <path d="M362.43254,360.570342 L329.568948,312.494297" id="Line-45"></path>
                <path d="M362.43254,360.570342 L281.154762,289.285171" id="Line-46"></path>
                <path d="M281.154762,289.285171 L155.09127,332.802281" id="Line-47"></path>
                <path d="M281.154762,289.285171 L347.089286,135.524715" id="Line-48"></path>
                <path d="M329.257937,311.665399 L347.089286,135.524715" id="Line-49"></path>
                <path d="M347.089286,135.524715 L420.902778,239.344106" id="Line-50"></path>
                <path d="M421.732143,239.136882 L363.261905,360.570342" id="Line-51"></path>
                <path d="M420.902778,239.344106 L336.30754,254.057034" id="Line-56"></path>
                <path d="M371.140873,267.319392 L388.55754,215.513308" id="Line-57"></path>
                <path d="M388.55754,214.269962 L420.902778,112.315589" id="Line-58"></path>
                <path d="M420.902778,111.486692 L460.712302,118.946768" id="Line-59"></path>
                <path d="M460.712302,118.946768 L420.902778,239.136882" id="Line-60"></path>
                <path d="M499.277778,220.486692 L371.140873,267.319392" id="Line-63"></path>
                <path d="M336.30754,254.057034 L388.55754,214.269962" id="Line-64"></path>
                <path d="M388.55754,214.269962 L454.906746,230.847909" id="Line-65"></path>
                <path d="M347.089286,135.524715 L378.605159,0.414448669" id="Line-66"></path>
                <path d="M420.902778,112.315589 L380.885913,3.10836502" id="Line-72"></path>
                <path d="M421.732143,112.315589 L485.593254,55.121673" id="Line-73"></path>
                <path d="M420.902778,111.486692 L488.081349,85.7908745" id="Line-75"></path>
                <path d="M460.712302,118.532319 L563.553571,87.4486692" id="Line-87"></path>
            </g>
            <g id="Group-20" transform="translate(41.184301, 0.541651)" fill="#FFFFFF">
                <ellipse id="Oval" cx="124.067308" cy="248.05916" rx="7.05399408" ry="7.04007634"></ellipse>
                <ellipse id="Oval-Copy-14" cx="326.143491" cy="277.461832" rx="4.97928994" ry="4.96946565"></ellipse>
                <ellipse id="Oval-Copy-15" cx="329.877959" cy="272.078244" rx="4.56434911" ry="4.55534351"></ellipse>
                <ellipse id="Oval-Copy-16" cx="295.022929" cy="258.826336" rx="3.73446746" ry="3.72709924"></ellipse>
                <ellipse id="Oval-Copy-17" cx="227.387574" cy="229.423664" rx="4.97928994" ry="4.96946565"></ellipse>
                <ellipse id="Oval-Copy-18" cx="239.835799" cy="294.026718" rx="2.48964497" ry="2.48473282"></ellipse>
                <ellipse id="Oval-Copy-19" cx="287.968935" cy="317.217557" rx="2.48964497" ry="2.48473282"></ellipse>
                <ellipse id="Oval-Copy-20" cx="347.305473" cy="219.070611" rx="3.73446746" ry="3.72709924"></ellipse>
                <ellipse id="Oval-Copy-26" cx="379.670858" cy="117.196565" rx="6.22411243" ry="6.21183206"></ellipse>
                <ellipse id="Oval-Copy-27" cx="305.811391" cy="140.387405" rx="3.73446746" ry="3.72709924"></ellipse>
            </g>
        </g>
        <text id="European-IT-Network" font-family="Avenir-Medium, Avenir" font-size="60" font-weight="400" fill="#FFFFFF">
            <tspan x="278.35" y="126">European</tspan>
            <tspan x="256.18" y="208">IT Network</tspan>
        </text>
    </g>
</svg>